# MagicaVoxel @ Ephtracy

# group
o 

# material
mtllib character.mtl
usemtl palette

# normals
vn -1 0 0
vn 1 0 0
vn 0 0 1
vn 0 0 -1
vn 0 -1 0
vn 0 1 0

# texcoords
vt 0.0332031 0.5
vt 0.0410156 0.5
vt 0.0605469 0.5
vt 0.0644531 0.5
vt 0.0683594 0.5
vt 0.205078 0.5
vt 0.369141 0.5
vt 0.486328 0.5
vt 0.603516 0.5
vt 0.607422 0.5
vt 0.623047 0.5
vt 0.767578 0.5
vt 0.994141 0.5

# verts
v -0.5 0.4 0
v -0.5 0.4 -0.1
v -0.5 0.5 0
v -0.5 0.5 -0.1
v -0.4 0.3 0
v -0.4 0.3 -0.1
v -0.4 0.4 0
v -0.4 0.4 -0.1
v -0.4 0.5 0
v -0.4 0.5 -0.1
v -0.4 0.6 0
v -0.4 0.6 -0.1
v -0.4 0.8 0.1
v -0.4 0.8 0
v -0.4 1 0.1
v -0.4 1 0
v -0.3 0.3 0.2
v -0.3 0.3 0.1
v -0.3 0.3 0
v -0.3 0.3 -0.1
v -0.3 0.3 -0.2
v -0.3 0.3 -0.3
v -0.3 0.4 0.2
v -0.3 0.4 0.1
v -0.3 0.4 0
v -0.3 0.4 -0.1
v -0.3 0.4 -0.2
v -0.3 0.4 -0.3
v -0.3 0.5 0.1
v -0.3 0.5 0
v -0.3 0.6 0
v -0.3 0.6 -0.1
v -0.3 0.6 -0.2
v -0.3 0.7 0.2
v -0.3 0.7 0.1
v -0.3 0.7 0
v -0.3 0.7 -0.1
v -0.3 0.7 -0.2
v -0.3 0.7 -0.3
v -0.3 0.8 0.1
v -0.3 0.8 0
v -0.3 1 0.1
v -0.3 1 0
v -0.3 1.2 0.2
v -0.3 1.2 -0.3
v -0.2 0 0
v -0.2 0 -0.1
v -0.2 0.2 0
v -0.2 0.2 -0.1
v -0.2 0.3 0
v -0.2 0.3 -0.1
v -0.2 0.4 0.1
v -0.2 0.4 0
v -0.2 0.4 -0.1
v -0.2 0.4 -0.2
v -0.2 0.5 0.1
v -0.2 0.5 0
v -0.2 0.5 -0.1
v -0.2 0.6 0.2
v -0.2 0.6 0.1
v -0.2 0.6 -0.1
v -0.2 0.6 -0.2
v -0.2 0.6 -0.3
v -0.2 0.7 0.2
v -0.2 0.7 0.1
v -0.2 0.7 -0.2
v -0.2 0.7 -0.3
v -0.2 0.7 -0.4
v -0.2 1.1 -0.3
v -0.2 1.1 -0.4
v -0.2 1.2 0.1
v -0.2 1.2 -0.2
v -0.2 1.3 0.1
v -0.2 1.3 -0.2
v -0.1 0.6 -0.3
v -0.1 0.6 -0.4
v -0.1 0.7 -0.3
v -0.1 0.7 -0.4
v 0.1 0 0
v 0.1 0 -0.1
v 0.1 0.2 0
v 0.1 0.2 -0.1
v 0.1 0.3 0
v 0.1 0.3 -0.1
v 0.1 0.5 -0.2
v 0.1 0.5 -0.3
v 0.1 0.5 -0.4
v 0.1 0.6 0.2
v 0.1 0.6 0.1
v 0.1 0.6 -0.2
v 0.1 0.6 -0.3
v 0.1 0.6 -0.4
v 0.1 0.7 0.2
v 0.1 0.7 0.1
v 0.2 0.4 -0.3
v 0.2 0.4 -0.4
v 0.2 0.5 -0.3
v 0.2 0.5 -0.4
v 0.2 0.7 0.2
v 0.2 0.7 0.1
v 0.2 0.8 0.1
v 0.2 0.9 0.2
v 0.2 0.9 0.1
v 0.3 0.3 -0.3
v 0.3 0.3 -0.4
v 0.3 0.4 -0.3
v 0.3 0.4 -0.4
v 0.3 0.5 0
v 0.3 0.5 -0.1
v 0.3 0.6 0
v 0.3 0.6 -0.1
v 0.4 0.2 -0.3
v 0.4 0.2 -0.4
v 0.4 0.3 -0.3
v 0.4 0.3 -0.4
v 0.4 0.4 0
v 0.4 0.4 -0.1
v 0.4 0.5 0
v 0.4 0.5 -0.1
v -0.4 0.4 0
v -0.4 0.4 -0.1
v -0.4 0.5 0
v -0.4 0.5 -0.1
v -0.2 0.7 0.2
v -0.2 0.7 0.1
v -0.2 0.8 0.1
v -0.2 0.9 0.2
v -0.2 0.9 0.1
v -0.1 0 0
v -0.1 0 -0.1
v -0.1 0.2 0
v -0.1 0.2 -0.1
v -0.1 0.3 0
v -0.1 0.3 -0.1
v -0.1 0.6 0.2
v -0.1 0.6 0.1
v -0.1 0.7 0.2
v -0.1 0.7 0.1
v 0.1 0.6 -0.3
v 0.1 0.6 -0.4
v 0.1 0.7 -0.3
v 0.1 0.7 -0.4
v 0.2 0 0
v 0.2 0 -0.1
v 0.2 0.2 0
v 0.2 0.2 -0.1
v 0.2 0.3 0
v 0.2 0.3 -0.1
v 0.2 0.4 0.1
v 0.2 0.4 0
v 0.2 0.4 -0.1
v 0.2 0.4 -0.2
v 0.2 0.5 0.1
v 0.2 0.5 0
v 0.2 0.5 -0.1
v 0.2 0.5 -0.2
v 0.2 0.5 -0.3
v 0.2 0.5 -0.4
v 0.2 0.6 0.2
v 0.2 0.6 0.1
v 0.2 0.6 0
v 0.2 0.6 -0.1
v 0.2 0.6 -0.2
v 0.2 0.6 -0.3
v 0.2 0.6 -0.4
v 0.2 0.7 0.2
v 0.2 0.7 0.1
v 0.2 0.7 0
v 0.2 0.7 -0.3
v 0.2 0.7 -0.4
v 0.2 0.8 0.1
v 0.2 0.8 0
v 0.2 1.1 -0.3
v 0.2 1.1 -0.4
v 0.2 1.2 0.1
v 0.2 1.2 -0.2
v 0.2 1.3 0.1
v 0.2 1.3 -0.2
v 0.3 0.3 0.2
v 0.3 0.3 0.1
v 0.3 0.3 0
v 0.3 0.3 -0.1
v 0.3 0.3 -0.2
v 0.3 0.3 -0.3
v 0.3 0.4 0.2
v 0.3 0.4 0.1
v 0.3 0.4 0
v 0.3 0.4 -0.1
v 0.3 0.4 -0.2
v 0.3 0.4 -0.3
v 0.3 0.4 -0.4
v 0.3 0.5 0.1
v 0.3 0.5 0
v 0.3 0.5 -0.3
v 0.3 0.5 -0.4
v 0.3 0.6 0
v 0.3 0.6 -0.1
v 0.3 0.6 -0.3
v 0.3 0.7 0.2
v 0.3 0.7 0.1
v 0.3 0.7 0
v 0.3 0.7 -0.1
v 0.3 0.8 0.1
v 0.3 0.8 0
v 0.3 0.8 -0.1
v 0.3 1 0.1
v 0.3 1 0
v 0.3 1.2 0.2
v 0.3 1.2 -0.3
v 0.4 0.3 0
v 0.4 0.3 -0.1
v 0.4 0.3 -0.3
v 0.4 0.3 -0.4
v 0.4 0.4 0
v 0.4 0.4 -0.1
v 0.4 0.4 -0.3
v 0.4 0.4 -0.4
v 0.4 0.5 0
v 0.4 0.5 -0.1
v 0.4 0.6 0
v 0.4 0.6 -0.1
v 0.4 0.8 0.1
v 0.4 0.8 0
v 0.4 1 0.1
v 0.4 1 0
v 0.5 0.2 -0.3
v 0.5 0.2 -0.4
v 0.5 0.3 -0.3
v 0.5 0.3 -0.4
v 0.5 0.4 0
v 0.5 0.4 -0.1
v 0.5 0.5 0
v 0.5 0.5 -0.1
v -0.3 0.3 0.2
v -0.3 0.4 0.2
v -0.3 0.7 0.2
v -0.3 1.2 0.2
v -0.2 0.3 0.2
v -0.2 0.4 0.2
v -0.2 0.6 0.2
v -0.2 0.7 0.2
v -0.2 0.9 0.2
v -0.1 0.3 0.2
v -0.1 0.4 0.2
v -0.1 0.6 0.2
v -0.1 0.7 0.2
v 0 0.3 0.2
v 0 0.4 0.2
v 0.1 0.3 0.2
v 0.1 0.4 0.2
v 0.1 0.6 0.2
v 0.1 0.7 0.2
v 0.2 0.3 0.2
v 0.2 0.4 0.2
v 0.2 0.6 0.2
v 0.2 0.7 0.2
v 0.2 0.9 0.2
v 0.3 0.3 0.2
v 0.3 0.4 0.2
v 0.3 0.7 0.2
v 0.3 1.2 0.2
v -0.4 0.8 0.1
v -0.4 1 0.1
v -0.3 0.5 0.1
v -0.3 0.7 0.1
v -0.3 0.8 0.1
v -0.3 1 0.1
v -0.2 0.4 0.1
v -0.2 0.5 0.1
v -0.2 0.6 0.1
v -0.2 0.7 0.1
v -0.2 0.8 0.1
v -0.2 0.9 0.1
v -0.2 1.2 0.1
v -0.2 1.3 0.1
v -0.1 0.4 0.1
v -0.1 0.6 0.1
v -0.1 0.7 0.1
v -0.1 0.8 0.1
v -0.1 0.9 0.1
v 0 0.4 0.1
v 0 0.6 0.1
v 0 0.7 0.1
v 0 0.8 0.1
v 0.1 0.4 0.1
v 0.1 0.5 0.1
v 0.1 0.6 0.1
v 0.1 0.7 0.1
v 0.1 0.8 0.1
v 0.1 0.9 0.1
v 0.2 0.4 0.1
v 0.2 0.5 0.1
v 0.2 0.6 0.1
v 0.2 0.7 0.1
v 0.2 0.8 0.1
v 0.2 0.9 0.1
v 0.2 1.2 0.1
v 0.2 1.3 0.1
v 0.3 0.5 0.1
v 0.3 0.7 0.1
v 0.3 0.8 0.1
v 0.3 1 0.1
v 0.4 0.8 0.1
v 0.4 1 0.1
v -0.5 0.4 0
v -0.5 0.5 0
v -0.4 0.3 0
v -0.4 0.4 0
v -0.4 0.5 0
v -0.4 0.6 0
v -0.3 0.3 0
v -0.3 0.4 0
v -0.3 0.5 0
v -0.3 0.6 0
v -0.2 0 0
v -0.2 0.2 0
v -0.2 0.3 0
v -0.1 0 0
v -0.1 0.2 0
v -0.1 0.3 0
v 0.1 0 0
v 0.1 0.2 0
v 0.1 0.3 0
v 0.2 0 0
v 0.2 0.2 0
v 0.2 0.3 0
v 0.2 0.7 0
v 0.2 0.8 0
v 0.3 0.3 0
v 0.3 0.4 0
v 0.3 0.5 0
v 0.3 0.6 0
v 0.3 0.7 0
v 0.3 0.8 0
v 0.4 0.3 0
v 0.4 0.4 0
v 0.4 0.5 0
v 0.4 0.6 0
v 0.5 0.4 0
v 0.5 0.5 0
v 0.2 0.4 -0.3
v 0.2 0.5 -0.3
v 0.3 0.3 -0.3
v 0.3 0.4 -0.3
v 0.3 0.5 -0.3
v 0.4 0.2 -0.3
v 0.4 0.3 -0.3
v 0.4 0.4 -0.3
v 0.5 0.2 -0.3
v 0.5 0.3 -0.3
v 0.2 0.7 0.1
v 0.2 0.8 0.1
v 0.3 0.7 0.1
v 0.3 0.8 0.1
v -0.4 0.8 0
v -0.4 1 0
v -0.3 0.8 0
v -0.3 1 0
v 0.2 0.5 0
v 0.2 0.6 0
v 0.3 0.5 0
v 0.3 0.6 0
v 0.3 0.8 0
v 0.3 1 0
v 0.4 0.8 0
v 0.4 1 0
v -0.5 0.4 -0.1
v -0.5 0.5 -0.1
v -0.4 0.3 -0.1
v -0.4 0.4 -0.1
v -0.4 0.5 -0.1
v -0.4 0.6 -0.1
v -0.3 0.3 -0.1
v -0.3 0.4 -0.1
v -0.3 0.6 -0.1
v -0.2 0 -0.1
v -0.2 0.2 -0.1
v -0.2 0.3 -0.1
v -0.2 0.5 -0.1
v -0.2 0.6 -0.1
v -0.1 0 -0.1
v -0.1 0.2 -0.1
v -0.1 0.3 -0.1
v 0.1 0 -0.1
v 0.1 0.2 -0.1
v 0.1 0.3 -0.1
v 0.2 0 -0.1
v 0.2 0.2 -0.1
v 0.2 0.3 -0.1
v 0.3 0.3 -0.1
v 0.3 0.4 -0.1
v 0.3 0.5 -0.1
v 0.3 0.6 -0.1
v 0.4 0.3 -0.1
v 0.4 0.4 -0.1
v 0.4 0.5 -0.1
v 0.4 0.6 -0.1
v 0.5 0.4 -0.1
v 0.5 0.5 -0.1
v -0.3 0.6 -0.2
v -0.3 0.7 -0.2
v -0.2 0.4 -0.2
v -0.2 0.6 -0.2
v -0.2 0.7 -0.2
v -0.2 1.2 -0.2
v -0.2 1.3 -0.2
v -0.1 0.4 -0.2
v -0.1 0.6 -0.2
v 0 0.4 -0.2
v 0 0.6 -0.2
v 0.1 0.4 -0.2
v 0.1 0.5 -0.2
v 0.1 0.6 -0.2
v 0.2 0.4 -0.2
v 0.2 0.5 -0.2
v 0.2 1.2 -0.2
v 0.2 1.3 -0.2
v -0.3 0.3 -0.3
v -0.3 0.4 -0.3
v -0.3 0.7 -0.3
v -0.3 1.2 -0.3
v -0.2 0.3 -0.3
v -0.2 0.4 -0.3
v -0.2 0.6 -0.3
v -0.2 0.7 -0.3
v -0.2 1.1 -0.3
v -0.1 0.3 -0.3
v -0.1 0.4 -0.3
v -0.1 0.6 -0.3
v -0.1 0.7 -0.3
v 0 0.3 -0.3
v 0 0.4 -0.3
v 0.1 0.3 -0.3
v 0.1 0.4 -0.3
v 0.1 0.6 -0.3
v 0.1 0.7 -0.3
v 0.2 0.3 -0.3
v 0.2 0.4 -0.3
v 0.2 0.6 -0.3
v 0.2 0.7 -0.3
v 0.2 1.1 -0.3
v 0.3 0.3 -0.3
v 0.3 0.4 -0.3
v 0.3 0.6 -0.3
v 0.3 1.2 -0.3
v -0.2 0.7 -0.4
v -0.2 1.1 -0.4
v -0.1 0.6 -0.4
v -0.1 0.7 -0.4
v 0.1 0.5 -0.4
v 0.1 0.6 -0.4
v 0.1 0.7 -0.4
v 0.2 0.4 -0.4
v 0.2 0.5 -0.4
v 0.2 0.6 -0.4
v 0.2 0.7 -0.4
v 0.2 1.1 -0.4
v 0.3 0.3 -0.4
v 0.3 0.4 -0.4
v 0.3 0.5 -0.4
v 0.4 0.2 -0.4
v 0.4 0.3 -0.4
v 0.4 0.4 -0.4
v 0.5 0.2 -0.4
v 0.5 0.3 -0.4
v -0.2 0 0
v -0.1 0 0
v 0.1 0 0
v 0.2 0 0
v -0.2 0 -0.1
v -0.1 0 -0.1
v 0.1 0 -0.1
v 0.2 0 -0.1
v 0.4 0.2 -0.3
v 0.5 0.2 -0.3
v 0.4 0.2 -0.4
v 0.5 0.2 -0.4
v -0.3 0.3 0.2
v -0.2 0.3 0.2
v -0.1 0.3 0.2
v 0 0.3 0.2
v 0.1 0.3 0.2
v 0.2 0.3 0.2
v 0.3 0.3 0.2
v -0.3 0.3 0.1
v -0.2 0.3 0.1
v 0.2 0.3 0.1
v 0.3 0.3 0.1
v -0.4 0.3 0
v -0.3 0.3 0
v -0.2 0.3 0
v -0.1 0.3 0
v 0.1 0.3 0
v 0.2 0.3 0
v 0.3 0.3 0
v 0.4 0.3 0
v -0.4 0.3 -0.1
v -0.3 0.3 -0.1
v -0.2 0.3 -0.1
v -0.1 0.3 -0.1
v 0.1 0.3 -0.1
v 0.2 0.3 -0.1
v 0.3 0.3 -0.1
v 0.4 0.3 -0.1
v -0.3 0.3 -0.2
v -0.2 0.3 -0.2
v 0.2 0.3 -0.2
v 0.3 0.3 -0.2
v -0.3 0.3 -0.3
v -0.2 0.3 -0.3
v -0.1 0.3 -0.3
v 0 0.3 -0.3
v 0.1 0.3 -0.3
v 0.2 0.3 -0.3
v 0.3 0.3 -0.3
v 0.4 0.3 -0.3
v 0.3 0.3 -0.4
v 0.4 0.3 -0.4
v -0.5 0.4 0
v -0.4 0.4 0
v 0.4 0.4 0
v 0.5 0.4 0
v -0.5 0.4 -0.1
v -0.4 0.4 -0.1
v 0.4 0.4 -0.1
v 0.5 0.4 -0.1
v 0.2 0.4 -0.3
v 0.3 0.4 -0.3
v 0.2 0.4 -0.4
v 0.3 0.4 -0.4
v -0.3 0.5 0.1
v -0.2 0.5 0.1
v 0.2 0.5 0.1
v 0.3 0.5 0.1
v -0.4 0.5 0
v -0.3 0.5 0
v -0.2 0.5 0
v 0.2 0.5 0
v 0.3 0.5 0
v 0.4 0.5 0
v -0.4 0.5 -0.1
v -0.2 0.5 -0.1
v 0.3 0.5 -0.1
v 0.4 0.5 -0.1
v 0.1 0.5 -0.2
v 0.2 0.5 -0.2
v 0.1 0.5 -0.3
v 0.2 0.5 -0.3
v 0.1 0.5 -0.4
v 0.2 0.5 -0.4
v -0.2 0.6 0.2
v -0.1 0.6 0.2
v 0.1 0.6 0.2
v 0.2 0.6 0.2
v -0.2 0.6 0.1
v -0.1 0.6 0.1
v 0.1 0.6 0.1
v 0.2 0.6 0.1
v 0.2 0.6 0
v 0.3 0.6 0
v -0.3 0.6 -0.1
v -0.2 0.6 -0.1
v 0.2 0.6 -0.1
v 0.3 0.6 -0.1
v -0.3 0.6 -0.2
v -0.2 0.6 -0.2
v -0.1 0.6 -0.2
v 0 0.6 -0.2
v 0.1 0.6 -0.2
v 0.2 0.6 -0.2
v -0.2 0.6 -0.3
v -0.1 0.6 -0.3
v 0.1 0.6 -0.3
v 0.2 0.6 -0.3
v 0.3 0.6 -0.3
v -0.1 0.6 -0.4
v 0.1 0.6 -0.4
v -0.3 0.7 0.2
v -0.2 0.7 0.2
v 0.2 0.7 0.2
v 0.3 0.7 0.2
v -0.3 0.7 0.1
v -0.2 0.7 0.1
v 0.2 0.7 0.1
v 0.3 0.7 0.1
v -0.3 0.7 -0.2
v -0.2 0.7 -0.2
v -0.3 0.7 -0.3
v -0.2 0.7 -0.3
v -0.1 0.7 -0.3
v 0.1 0.7 -0.3
v 0.2 0.7 -0.3
v -0.2 0.7 -0.4
v -0.1 0.7 -0.4
v 0.1 0.7 -0.4
v 0.2 0.7 -0.4
v -0.4 0.8 0.1
v -0.3 0.8 0.1
v 0.2 0.8 0.1
v 0.3 0.8 0.1
v 0.4 0.8 0.1
v -0.4 0.8 0
v -0.3 0.8 0
v 0.2 0.8 0
v 0.3 0.8 0
v 0.4 0.8 0
v -0.2 0.9 0.2
v 0.2 0.9 0.2
v -0.2 0.9 0.1
v -0.1 0.9 0.1
v 0.1 0.9 0.1
v 0.2 0.9 0.1
v 0.4 0.3 -0.3
v 0.5 0.3 -0.3
v 0.4 0.3 -0.4
v 0.5 0.3 -0.4
v -0.3 0.4 0.2
v -0.2 0.4 0.2
v -0.1 0.4 0.2
v 0 0.4 0.2
v 0.1 0.4 0.2
v 0.2 0.4 0.2
v 0.3 0.4 0.2
v -0.3 0.4 0.1
v -0.2 0.4 0.1
v -0.1 0.4 0.1
v 0 0.4 0.1
v 0.1 0.4 0.1
v 0.2 0.4 0.1
v 0.3 0.4 0.1
v -0.4 0.4 0
v -0.3 0.4 0
v -0.2 0.4 0
v 0.2 0.4 0
v 0.3 0.4 0
v 0.4 0.4 0
v -0.4 0.4 -0.1
v -0.3 0.4 -0.1
v -0.2 0.4 -0.1
v 0.2 0.4 -0.1
v 0.3 0.4 -0.1
v 0.4 0.4 -0.1
v -0.3 0.4 -0.2
v -0.2 0.4 -0.2
v -0.1 0.4 -0.2
v 0 0.4 -0.2
v 0.1 0.4 -0.2
v 0.2 0.4 -0.2
v 0.3 0.4 -0.2
v -0.3 0.4 -0.3
v -0.2 0.4 -0.3
v -0.1 0.4 -0.3
v 0 0.4 -0.3
v 0.1 0.4 -0.3
v 0.2 0.4 -0.3
v 0.3 0.4 -0.3
v 0.4 0.4 -0.3
v 0.3 0.4 -0.4
v 0.4 0.4 -0.4
v -0.5 0.5 0
v -0.4 0.5 0
v 0.4 0.5 0
v 0.5 0.5 0
v -0.5 0.5 -0.1
v -0.4 0.5 -0.1
v 0.4 0.5 -0.1
v 0.5 0.5 -0.1
v 0.2 0.5 -0.3
v 0.3 0.5 -0.3
v 0.2 0.5 -0.4
v 0.3 0.5 -0.4
v -0.4 0.6 0
v -0.3 0.6 0
v 0.3 0.6 0
v 0.4 0.6 0
v -0.4 0.6 -0.1
v -0.3 0.6 -0.1
v 0.3 0.6 -0.1
v 0.4 0.6 -0.1
v 0.1 0.6 -0.3
v 0.2 0.6 -0.3
v 0.1 0.6 -0.4
v 0.2 0.6 -0.4
v -0.2 0.7 0.2
v -0.1 0.7 0.2
v 0.1 0.7 0.2
v 0.2 0.7 0.2
v -0.2 0.7 0.1
v -0.1 0.7 0.1
v 0.1 0.7 0.1
v 0.2 0.7 0.1
v 0.3 0.7 0.1
v 0.2 0.7 0
v 0.3 0.7 0
v -0.4 1 0.1
v -0.3 1 0.1
v 0.3 1 0.1
v 0.4 1 0.1
v -0.4 1 0
v -0.3 1 0
v 0.3 1 0
v 0.4 1 0
v -0.2 1.1 -0.3
v 0.2 1.1 -0.3
v -0.2 1.1 -0.4
v 0.2 1.1 -0.4
v -0.3 1.2 0.2
v 0.3 1.2 0.2
v -0.2 1.2 0.1
v 0.2 1.2 0.1
v -0.2 1.2 -0.2
v 0.2 1.2 -0.2
v -0.3 1.2 -0.3
v 0.3 1.2 -0.3
v -0.2 1.3 0.1
v 0.2 1.3 0.1
v -0.2 1.3 -0.2
v 0.2 1.3 -0.2

# faces
f 3/1/1 2/1/1 1/1/1
f 4/1/1 2/1/1 3/1/1
f 7/1/1 6/1/1 5/1/1
f 8/1/1 6/1/1 7/1/1
f 11/1/1 10/1/1 9/1/1
f 12/1/1 10/1/1 11/1/1
f 15/5/1 14/5/1 13/5/1
f 16/5/1 14/5/1 15/5/1
f 23/12/1 18/12/1 17/12/1
f 24/9/1 19/9/1 18/9/1
f 24/12/1 18/12/1 23/12/1
f 25/9/1 19/9/1 24/9/1
f 26/9/1 21/9/1 20/9/1
f 27/12/1 22/12/1 21/12/1
f 27/9/1 21/9/1 26/9/1
f 28/12/1 22/12/1 27/12/1
f 31/5/1 30/5/1 29/5/1
f 35/5/1 31/5/1 29/5/1
f 36/12/1 32/12/1 31/12/1
f 36/5/1 31/5/1 35/5/1
f 37/5/1 33/5/1 32/5/1
f 37/12/1 32/12/1 36/12/1
f 38/5/1 33/5/1 37/5/1
f 40/5/1 36/5/1 35/5/1
f 40/5/1 39/5/1 38/5/1
f 40/5/1 38/5/1 37/5/1
f 40/5/1 37/5/1 36/5/1
f 40/5/1 35/5/1 34/5/1
f 41/5/1 39/5/1 40/5/1
f 42/5/1 40/5/1 34/5/1
f 43/5/1 39/5/1 41/5/1
f 44/5/1 42/5/1 34/5/1
f 44/5/1 43/5/1 42/5/1
f 45/5/1 39/5/1 43/5/1
f 45/5/1 43/5/1 44/5/1
f 48/7/1 47/7/1 46/7/1
f 49/7/1 47/7/1 48/7/1
f 50/1/1 49/1/1 48/1/1
f 51/1/1 49/1/1 50/1/1
f 56/9/1 53/9/1 52/9/1
f 57/12/1 54/12/1 53/12/1
f 57/9/1 53/9/1 56/9/1
f 58/9/1 55/9/1 54/9/1
f 58/12/1 54/12/1 57/12/1
f 61/9/1 55/9/1 58/9/1
f 62/9/1 55/9/1 61/9/1
f 64/5/1 60/5/1 59/5/1
f 65/5/1 60/5/1 64/5/1
f 66/5/1 63/5/1 62/5/1
f 67/5/1 63/5/1 66/5/1
f 69/5/1 68/5/1 67/5/1
f 70/5/1 68/5/1 69/5/1
f 73/5/1 72/5/1 71/5/1
f 74/5/1 72/5/1 73/5/1
f 77/5/1 76/5/1 75/5/1
f 78/5/1 76/5/1 77/5/1
f 81/7/1 80/7/1 79/7/1
f 82/7/1 80/7/1 81/7/1
f 83/1/1 82/1/1 81/1/1
f 84/1/1 82/1/1 83/1/1
f 90/8/1 86/8/1 85/8/1
f 91/5/1 87/5/1 86/5/1
f 91/8/1 86/8/1 90/8/1
f 92/5/1 87/5/1 91/5/1
f 93/5/1 89/5/1 88/5/1
f 94/5/1 89/5/1 93/5/1
f 97/5/1 96/5/1 95/5/1
f 98/5/1 96/5/1 97/5/1
f 101/5/1 100/5/1 99/5/1
f 102/5/1 101/5/1 99/5/1
f 103/5/1 101/5/1 102/5/1
f 106/5/1 105/5/1 104/5/1
f 107/5/1 105/5/1 106/5/1
f 110/1/1 109/1/1 108/1/1
f 111/1/1 109/1/1 110/1/1
f 114/5/1 113/5/1 112/5/1
f 115/5/1 113/5/1 114/5/1
f 118/1/1 117/1/1 116/1/1
f 119/1/1 117/1/1 118/1/1
f 120/1/2 121/1/2 122/1/2
f 122/1/2 121/1/2 123/1/2
f 124/5/2 125/5/2 126/5/2
f 124/5/2 126/5/2 127/5/2
f 127/5/2 126/5/2 128/5/2
f 129/7/2 130/7/2 131/7/2
f 131/7/2 130/7/2 132/7/2
f 131/1/2 132/1/2 133/1/2
f 133/1/2 132/1/2 134/1/2
f 135/5/2 136/5/2 137/5/2
f 137/5/2 136/5/2 138/5/2
f 139/5/2 140/5/2 141/5/2
f 141/5/2 140/5/2 142/5/2
f 143/7/2 144/7/2 145/7/2
f 145/7/2 144/7/2 146/7/2
f 145/1/2 146/1/2 147/1/2
f 147/1/2 146/1/2 148/1/2
f 149/12/2 150/12/2 153/12/2
f 150/9/2 151/9/2 154/9/2
f 153/12/2 150/12/2 154/12/2
f 151/12/2 152/12/2 155/12/2
f 154/9/2 151/9/2 155/9/2
f 155/12/2 152/12/2 156/12/2
f 154/11/2 155/11/2 161/11/2
f 155/11/2 156/11/2 161/11/2
f 161/11/2 156/11/2 162/11/2
f 156/8/2 157/8/2 163/8/2
f 162/11/2 156/11/2 163/11/2
f 157/5/2 158/5/2 164/5/2
f 163/8/2 157/8/2 164/8/2
f 164/5/2 158/5/2 165/5/2
f 159/5/2 160/5/2 166/5/2
f 166/5/2 160/5/2 167/5/2
f 167/1/2 168/1/2 171/1/2
f 171/1/2 168/1/2 172/1/2
f 169/5/2 170/5/2 173/5/2
f 173/5/2 170/5/2 174/5/2
f 175/5/2 176/5/2 177/5/2
f 177/5/2 176/5/2 178/5/2
f 179/9/2 180/9/2 185/9/2
f 180/12/2 181/12/2 186/12/2
f 185/9/2 180/9/2 186/9/2
f 186/12/2 181/12/2 187/12/2
f 182/12/2 183/12/2 188/12/2
f 183/9/2 184/9/2 189/9/2
f 188/12/2 183/12/2 189/12/2
f 189/9/2 184/9/2 190/9/2
f 190/5/2 191/5/2 194/5/2
f 194/5/2 191/5/2 195/5/2
f 192/5/2 193/5/2 196/5/2
f 192/5/2 196/5/2 200/5/2
f 196/12/2 197/12/2 201/12/2
f 200/5/2 196/5/2 201/5/2
f 197/5/2 198/5/2 202/5/2
f 201/12/2 197/12/2 202/12/2
f 199/5/2 200/5/2 203/5/2
f 201/4/2 202/4/2 204/4/2
f 202/5/2 198/5/2 205/5/2
f 204/4/2 202/4/2 205/4/2
f 199/5/2 203/5/2 206/5/2
f 204/5/2 205/5/2 207/5/2
f 199/5/2 206/5/2 208/5/2
f 206/5/2 207/5/2 208/5/2
f 205/5/2 198/5/2 209/5/2
f 208/5/2 207/5/2 209/5/2
f 207/5/2 205/5/2 209/5/2
f 210/1/2 211/1/2 214/1/2
f 214/1/2 211/1/2 215/1/2
f 212/5/2 213/5/2 216/5/2
f 216/5/2 213/5/2 217/5/2
f 218/1/2 219/1/2 220/1/2
f 220/1/2 219/1/2 221/1/2
f 222/5/2 223/5/2 224/5/2
f 224/5/2 223/5/2 225/5/2
f 226/5/2 227/5/2 228/5/2
f 228/5/2 227/5/2 229/5/2
f 230/1/2 231/1/2 232/1/2
f 232/1/2 231/1/2 233/1/2
f 238/12/3 235/12/3 234/12/3
f 239/12/3 235/12/3 238/12/3
f 241/5/3 237/5/3 236/5/3
f 242/5/3 237/5/3 241/5/3
f 243/9/3 239/9/3 238/9/3
f 244/9/3 239/9/3 243/9/3
f 245/5/3 241/5/3 240/5/3
f 246/5/3 241/5/3 245/5/3
f 247/12/3 244/12/3 243/12/3
f 248/12/3 244/12/3 247/12/3
f 249/9/3 248/9/3 247/9/3
f 250/9/3 248/9/3 249/9/3
f 253/12/3 250/12/3 249/12/3
f 254/12/3 250/12/3 253/12/3
f 255/5/3 252/5/3 251/5/3
f 256/5/3 252/5/3 255/5/3
f 257/5/3 237/5/3 242/5/3
f 258/9/3 254/9/3 253/9/3
f 259/9/3 254/9/3 258/9/3
f 260/5/3 257/5/3 256/5/3
f 261/5/3 237/5/3 257/5/3
f 261/5/3 257/5/3 260/5/3
f 266/5/3 263/5/3 262/5/3
f 267/5/3 263/5/3 266/5/3
f 269/5/3 265/5/3 264/5/3
f 270/5/3 265/5/3 269/5/3
f 271/5/3 265/5/3 270/5/3
f 276/9/3 269/9/3 268/9/3
f 276/9/3 270/9/3 269/9/3
f 277/9/3 270/9/3 276/9/3
f 278/3/3 272/3/3 271/3/3
f 279/13/3 273/13/3 272/13/3
f 279/3/3 272/3/3 278/3/3
f 280/13/3 273/13/3 279/13/3
f 281/12/3 277/12/3 276/12/3
f 282/10/3 278/10/3 277/10/3
f 282/12/3 277/12/3 281/12/3
f 283/3/3 279/3/3 278/3/3
f 283/10/3 278/10/3 282/10/3
f 284/1/3 280/1/3 279/1/3
f 284/3/3 279/3/3 283/3/3
f 285/9/3 282/9/3 281/9/3
f 285/9/3 283/9/3 282/9/3
f 286/9/3 283/9/3 285/9/3
f 287/9/3 283/9/3 286/9/3
f 288/1/3 284/1/3 283/1/3
f 288/9/3 283/9/3 287/9/3
f 289/1/3 280/1/3 284/1/3
f 289/1/3 284/1/3 288/1/3
f 290/1/3 280/1/3 289/1/3
f 291/12/3 286/12/3 285/12/3
f 292/9/3 287/9/3 286/9/3
f 292/12/3 286/12/3 291/12/3
f 293/9/3 287/9/3 292/9/3
f 294/1/3 289/1/3 288/1/3
f 295/13/3 290/13/3 289/13/3
f 295/1/3 289/1/3 294/1/3
f 296/13/3 290/13/3 295/13/3
f 297/5/3 275/5/3 274/5/3
f 298/5/3 275/5/3 297/5/3
f 299/5/3 294/5/3 293/5/3
f 299/5/3 293/5/3 292/5/3
f 300/5/3 294/5/3 299/5/3
f 303/5/3 302/5/3 301/5/3
f 304/5/3 302/5/3 303/5/3
f 308/1/3 306/1/3 305/1/3
f 309/1/3 306/1/3 308/1/3
f 311/1/3 308/1/3 307/1/3
f 312/1/3 308/1/3 311/1/3
f 313/1/3 310/1/3 309/1/3
f 314/1/3 310/1/3 313/1/3
f 318/7/3 316/7/3 315/7/3
f 319/1/3 317/1/3 316/1/3
f 319/7/3 316/7/3 318/7/3
f 320/1/3 317/1/3 319/1/3
f 324/7/3 322/7/3 321/7/3
f 325/1/3 323/1/3 322/1/3
f 325/7/3 322/7/3 324/7/3
f 326/1/3 323/1/3 325/1/3
f 333/4/3 328/4/3 327/4/3
f 334/4/3 328/4/3 333/4/3
f 335/1/3 330/1/3 329/1/3
f 336/1/3 330/1/3 335/1/3
f 337/1/3 332/1/3 331/1/3
f 338/1/3 332/1/3 337/1/3
f 339/1/3 337/1/3 336/1/3
f 340/1/3 337/1/3 339/1/3
f 344/5/3 342/5/3 341/5/3
f 345/5/3 342/5/3 344/5/3
f 347/5/3 344/5/3 343/5/3
f 348/5/3 344/5/3 347/5/3
f 349/5/3 347/5/3 346/5/3
f 350/5/3 347/5/3 349/5/3
f 351/5/4 352/5/4 353/5/4
f 353/5/4 352/5/4 354/5/4
f 355/5/4 356/5/4 357/5/4
f 357/5/4 356/5/4 358/5/4
f 359/5/4 360/5/4 361/5/4
f 361/5/4 360/5/4 362/5/4
f 363/5/4 364/5/4 365/5/4
f 365/5/4 364/5/4 366/5/4
f 367/1/4 368/1/4 370/1/4
f 370/1/4 368/1/4 371/1/4
f 369/1/4 370/1/4 373/1/4
f 373/1/4 370/1/4 374/1/4
f 371/1/4 372/1/4 375/1/4
f 371/1/4 375/1/4 379/1/4
f 379/1/4 375/1/4 380/1/4
f 376/7/4 377/7/4 381/7/4
f 377/1/4 378/1/4 382/1/4
f 381/7/4 377/7/4 382/7/4
f 382/1/4 378/1/4 383/1/4
f 384/7/4 385/7/4 387/7/4
f 385/1/4 386/1/4 388/1/4
f 387/7/4 385/7/4 388/7/4
f 388/1/4 386/1/4 389/1/4
f 390/1/4 391/1/4 394/1/4
f 394/1/4 391/1/4 395/1/4
f 392/1/4 393/1/4 396/1/4
f 396/1/4 393/1/4 397/1/4
f 395/1/4 396/1/4 398/1/4
f 398/1/4 396/1/4 399/1/4
f 400/5/4 401/5/4 403/5/4
f 403/5/4 401/5/4 404/5/4
f 402/9/4 403/9/4 407/9/4
f 407/9/4 403/9/4 408/9/4
f 407/12/4 408/12/4 409/12/4
f 409/12/4 408/12/4 410/12/4
f 409/9/4 410/9/4 411/9/4
f 411/9/4 410/9/4 412/9/4
f 412/9/4 410/9/4 413/9/4
f 411/12/4 412/12/4 414/12/4
f 414/12/4 412/12/4 415/12/4
f 405/5/4 406/5/4 416/5/4
f 416/5/4 406/5/4 417/5/4
f 418/12/4 419/12/4 422/12/4
f 422/12/4 419/12/4 423/12/4
f 420/5/4 421/5/4 425/5/4
f 425/5/4 421/5/4 426/5/4
f 422/9/4 423/9/4 427/9/4
f 427/9/4 423/9/4 428/9/4
f 424/5/4 425/5/4 429/5/4
f 429/5/4 425/5/4 430/5/4
f 427/12/4 428/12/4 431/12/4
f 431/12/4 428/12/4 432/12/4
f 431/9/4 432/9/4 433/9/4
f 433/9/4 432/9/4 434/9/4
f 433/12/4 434/12/4 437/12/4
f 437/12/4 434/12/4 438/12/4
f 435/4/4 436/4/4 439/4/4
f 439/4/4 436/4/4 440/4/4
f 426/5/4 421/5/4 441/5/4
f 437/9/4 438/9/4 442/9/4
f 442/9/4 438/9/4 443/9/4
f 439/5/4 440/5/4 444/5/4
f 440/5/4 441/5/4 444/5/4
f 441/5/4 421/5/4 445/5/4
f 444/5/4 441/5/4 445/5/4
f 446/5/4 447/5/4 449/5/4
f 448/5/4 449/5/4 451/5/4
f 449/5/4 447/5/4 452/5/4
f 451/5/4 449/5/4 452/5/4
f 450/5/4 451/5/4 454/5/4
f 454/5/4 451/5/4 455/5/4
f 452/5/4 447/5/4 456/5/4
f 456/5/4 447/5/4 457/5/4
f 453/5/4 454/5/4 459/5/4
f 459/5/4 454/5/4 460/5/4
f 458/5/4 459/5/4 462/5/4
f 462/5/4 459/5/4 463/5/4
f 461/5/4 462/5/4 464/5/4
f 464/5/4 462/5/4 465/5/4
f 470/7/5 467/7/5 466/7/5
f 471/7/5 467/7/5 470/7/5
f 472/7/5 469/7/5 468/7/5
f 473/7/5 469/7/5 472/7/5
f 476/5/5 475/5/5 474/5/5
f 477/5/5 475/5/5 476/5/5
f 485/12/5 479/12/5 478/12/5
f 486/9/5 480/9/5 479/9/5
f 486/12/5 479/12/5 485/12/5
f 487/9/5 484/9/5 483/9/5
f 487/12/5 483/12/5 482/12/5
f 488/9/5 484/9/5 487/9/5
f 490/9/5 486/9/5 485/9/5
f 491/9/5 480/9/5 486/9/5
f 491/9/5 486/9/5 490/9/5
f 492/12/5 481/12/5 480/12/5
f 492/9/5 480/9/5 491/9/5
f 493/9/5 482/9/5 481/9/5
f 493/12/5 487/12/5 482/12/5
f 493/12/5 488/12/5 487/12/5
f 494/12/5 488/12/5 493/12/5
f 495/12/5 488/12/5 494/12/5
f 497/1/5 490/1/5 489/1/5
f 498/12/5 491/12/5 490/12/5
f 498/1/5 490/1/5 497/1/5
f 499/12/5 491/12/5 498/12/5
f 500/12/5 481/12/5 492/12/5
f 501/9/5 493/9/5 481/9/5
f 502/9/5 495/9/5 494/9/5
f 503/1/5 496/1/5 495/1/5
f 503/9/5 495/9/5 502/9/5
f 504/1/5 496/1/5 503/1/5
f 505/9/5 499/9/5 498/9/5
f 505/9/5 500/9/5 499/9/5
f 506/9/5 500/9/5 505/9/5
f 507/12/5 502/12/5 501/12/5
f 507/12/5 503/12/5 502/12/5
f 508/12/5 503/12/5 507/12/5
f 509/12/5 506/12/5 505/12/5
f 510/9/5 500/9/5 506/9/5
f 510/12/5 506/12/5 509/12/5
f 511/12/5 481/12/5 500/12/5
f 511/9/5 500/9/5 510/9/5
f 512/9/5 501/9/5 481/9/5
f 512/12/5 481/12/5 511/12/5
f 513/12/5 507/12/5 501/12/5
f 513/9/5 501/9/5 512/9/5
f 514/9/5 508/9/5 507/9/5
f 514/12/5 507/12/5 513/12/5
f 515/9/5 508/9/5 514/9/5
f 517/5/5 516/5/5 515/5/5
f 518/5/5 516/5/5 517/5/5
f 523/1/5 520/1/5 519/1/5
f 524/1/5 520/1/5 523/1/5
f 525/1/5 522/1/5 521/1/5
f 526/1/5 522/1/5 525/1/5
f 529/5/5 528/5/5 527/5/5
f 530/5/5 528/5/5 529/5/5
f 536/5/5 532/5/5 531/5/5
f 537/5/5 532/5/5 536/5/5
f 538/5/5 534/5/5 533/5/5
f 539/5/5 534/5/5 538/5/5
f 541/1/5 537/1/5 536/1/5
f 541/1/5 536/1/5 535/1/5
f 542/1/5 537/1/5 541/1/5
f 543/1/5 540/1/5 539/1/5
f 544/1/5 540/1/5 543/1/5
f 547/8/5 546/8/5 545/8/5
f 548/8/5 546/8/5 547/8/5
f 549/5/5 548/5/5 547/5/5
f 550/5/5 548/5/5 549/5/5
f 555/5/5 552/5/5 551/5/5
f 556/5/5 552/5/5 555/5/5
f 557/5/5 554/5/5 553/5/5
f 558/5/5 554/5/5 557/5/5
f 563/12/5 560/12/5 559/12/5
f 564/12/5 560/12/5 563/12/5
f 565/5/5 562/5/5 561/5/5
f 566/5/5 562/5/5 565/5/5
f 570/5/5 564/5/5 563/5/5
f 571/5/5 569/5/5 568/5/5
f 571/5/5 567/5/5 566/5/5
f 571/5/5 568/5/5 567/5/5
f 572/5/5 569/5/5 571/5/5
f 573/5/5 569/5/5 572/5/5
f 574/5/5 564/5/5 570/5/5
f 575/5/5 564/5/5 574/5/5
f 576/5/5 573/5/5 572/5/5
f 577/5/5 573/5/5 576/5/5
f 582/5/5 579/5/5 578/5/5
f 583/5/5 579/5/5 582/5/5
f 584/5/5 581/5/5 580/5/5
f 585/5/5 581/5/5 584/5/5
f 588/5/5 587/5/5 586/5/5
f 589/5/5 587/5/5 588/5/5
f 593/5/5 590/5/5 589/5/5
f 594/5/5 590/5/5 593/5/5
f 595/5/5 592/5/5 591/5/5
f 596/5/5 592/5/5 595/5/5
f 602/5/5 598/5/5 597/5/5
f 603/5/5 598/5/5 602/5/5
f 604/5/5 601/5/5 600/5/5
f 604/5/5 600/5/5 599/5/5
f 605/5/5 601/5/5 604/5/5
f 606/5/5 601/5/5 605/5/5
f 609/5/5 608/5/5 607/5/5
f 610/5/5 608/5/5 609/5/5
f 611/5/5 608/5/5 610/5/5
f 612/5/5 608/5/5 611/5/5
f 613/5/6 614/5/6 615/5/6
f 615/5/6 614/5/6 616/5/6
f 617/12/6 618/12/6 624/12/6
f 618/9/6 619/9/6 625/9/6
f 624/12/6 618/12/6 625/12/6
f 619/12/6 620/12/6 626/12/6
f 625/9/6 619/9/6 626/9/6
f 620/9/6 621/9/6 627/9/6
f 626/12/6 620/12/6 627/12/6
f 621/12/6 622/12/6 628/12/6
f 627/9/6 621/9/6 628/9/6
f 622/9/6 623/9/6 629/9/6
f 628/12/6 622/12/6 629/12/6
f 629/9/6 623/9/6 630/9/6
f 624/9/6 625/9/6 632/9/6
f 632/9/6 625/9/6 633/9/6
f 629/12/6 630/12/6 634/12/6
f 634/12/6 630/12/6 635/12/6
f 631/1/6 632/1/6 637/1/6
f 632/12/6 633/12/6 638/12/6
f 637/1/6 632/1/6 638/1/6
f 638/12/6 633/12/6 639/12/6
f 634/9/6 635/9/6 640/9/6
f 635/1/6 636/1/6 641/1/6
f 640/9/6 635/9/6 641/9/6
f 641/1/6 636/1/6 642/1/6
f 638/9/6 639/9/6 643/9/6
f 643/9/6 639/9/6 644/9/6
f 640/12/6 641/12/6 648/12/6
f 648/12/6 641/12/6 649/12/6
f 643/12/6 644/12/6 650/12/6
f 644/9/6 645/9/6 651/9/6
f 650/12/6 644/12/6 651/12/6
f 645/12/6 646/12/6 652/12/6
f 651/9/6 645/9/6 652/9/6
f 646/9/6 647/9/6 653/9/6
f 652/12/6 646/12/6 653/12/6
f 647/12/6 648/12/6 654/12/6
f 653/9/6 647/9/6 654/9/6
f 648/9/6 649/9/6 655/9/6
f 654/12/6 648/12/6 655/12/6
f 655/9/6 649/9/6 656/9/6
f 656/5/6 657/5/6 658/5/6
f 658/5/6 657/5/6 659/5/6
f 660/1/6 661/1/6 664/1/6
f 664/1/6 661/1/6 665/1/6
f 662/1/6 663/1/6 666/1/6
f 666/1/6 663/1/6 667/1/6
f 668/5/6 669/5/6 670/5/6
f 670/5/6 669/5/6 671/5/6
f 672/1/6 673/1/6 676/1/6
f 676/1/6 673/1/6 677/1/6
f 674/1/6 675/1/6 678/1/6
f 678/1/6 675/1/6 679/1/6
f 680/5/6 681/5/6 682/5/6
f 682/5/6 681/5/6 683/5/6
f 684/5/6 685/5/6 688/5/6
f 688/5/6 685/5/6 689/5/6
f 686/5/6 687/5/6 690/5/6
f 690/5/6 687/5/6 691/5/6
f 691/5/6 692/5/6 693/5/6
f 693/5/6 692/5/6 694/5/6
f 695/5/6 696/5/6 699/5/6
f 699/5/6 696/5/6 700/5/6
f 697/5/6 698/5/6 701/5/6
f 701/5/6 698/5/6 702/5/6
f 703/5/6 704/5/6 705/5/6
f 705/5/6 704/5/6 706/5/6
f 707/5/6 708/5/6 709/5/6
f 709/5/6 708/5/6 710/5/6
f 707/5/6 709/5/6 711/5/6
f 710/5/6 708/5/6 712/5/6
f 707/5/6 711/5/6 713/5/6
f 711/5/6 712/5/6 713/5/6
f 712/5/6 708/5/6 714/5/6
f 713/5/6 712/5/6 714/5/6
f 715/5/6 716/5/6 717/5/6
f 717/5/6 716/5/6 718/5/6
